<svg width="178" height="22" viewBox="0 0 178 22" fill="none" xmlns="http://www.w3.org/2000/svg">
<path d="M30.2497 16.5574C32.034 14.9091 33.4493 12.9018 34.4024 10.6675C35.8196 7.29456 35.7003 4.67088 34.0443 2.79647C32.3883 0.92205 29.2566 -0.0100773 24.6493 8.21519e-05H9.09015L7.68052 3.38318H18.4013C23.8721 3.38318 25.457 6.09574 23.5673 10.5913C22.4777 13.1896 21.5177 15.5821 19.2394 16.6412C17.1593 17.6242 15.0106 17.9061 11.1855 17.9061H6.22518L9.92068 9.14358H5.24988L0 21.6016H14.0962C17.2563 21.7191 20.4164 21.3725 23.4759 20.5729C26.0006 19.7653 28.3143 18.4068 30.2497 16.5955V16.5574ZM131.666 8.21519e-05H125.891L103.687 20.7025L112.366 8.21519e-05H102.849L91.3511 8.97594L85.4536 13.8372H85.1869L87.968 6.7815L84.5545 8.21519e-05H74.9919L66.2979 20.7329L61.2919 8.21519e-05H50.815L27.6743 21.6016H33.4576L39.3703 15.9555H53.9542L55.1124 21.6016H70.603L76.2034 8.25209C76.5156 7.50516 76.7877 6.74212 77.0187 5.96621C77.067 6.73397 77.2582 7.48595 77.5825 8.18351L82.5048 19.3233H83.3429L97.4315 8.22923C98.2703 7.51161 99.069 6.7485 99.8241 5.94336C99.2805 6.9593 98.8996 7.72126 98.6811 8.22923L93.0731 21.6244H114.08L119.932 15.9479H135.072L136.291 21.6244H141.625L136.429 8.21519e-05H131.666ZM42.4258 13.0067L51.6531 4.21371L53.3218 13.0067H42.4258ZM123.003 13.0067L132.474 3.80987L134.44 12.9534L123.003 13.0067ZM177.551 0.243914L177.628 0.0534248H162.068C157.978 -0.0695607 153.928 0.898211 150.334 2.85742C147.205 4.61094 144.751 7.35983 143.362 10.6675C142.504 12.4934 142.237 14.5421 142.6 16.527C142.807 17.4202 143.229 18.2495 143.829 18.9426C144.43 19.6358 145.19 20.1719 146.044 20.5044C147.728 21.2282 150.555 21.594 154.502 21.594H168.568L169.97 18.1652H162.053C158.243 18.1652 155.691 17.6775 154.434 16.6946C153.039 15.6355 153.192 13.182 154.281 10.5989C156.163 6.10337 160.118 3.29936 165.581 3.29936H171.722L170.313 6.67483H174.984L177.696 0.198187L177.551 0.243914Z" fill="#2B3845"/>
</svg>
