<svg width="760" height="111" viewBox="0 0 760 111" fill="none" xmlns="http://www.w3.org/2000/svg">
<path d="M81.2409 86H48.8249V82.0925C49.7054 82.0191 50.9713 81.909 52.6223 81.7623C54.3101 81.6155 55.4658 81.3953 56.0896 81.1018C57.1903 80.6615 57.9975 80.0011 58.5112 79.1205C59.0248 78.2033 59.2817 77.0292 59.2817 75.5983V47.8053H22.5729V74.9929C22.5729 76.277 22.7747 77.3594 23.1783 78.24C23.6185 79.1205 24.4624 79.891 25.7099 80.5515C26.3336 80.8817 27.4344 81.2119 29.012 81.5421C30.6264 81.8723 31.8922 82.0558 32.8095 82.0925V86H0.393495V82.0925C1.27407 82.0191 2.53989 81.909 4.19096 81.7623C5.87872 81.6155 7.03446 81.3953 7.6582 81.1018C8.75892 80.6615 9.56611 80.0011 10.0798 79.1205C10.5934 78.2033 10.8503 77.0292 10.8503 75.5983V19.2417C10.8503 18.0676 10.6118 17.0036 10.1348 16.0497C9.65783 15.059 8.8323 14.2885 7.6582 13.7382C6.66756 13.2612 5.45678 12.8393 4.02585 12.4724C2.63161 12.1055 1.42083 11.8853 0.393495 11.8119V7.9044H32.8095V11.8119C31.7822 11.8486 30.5163 12.0137 29.012 12.3072C27.5444 12.6008 26.4437 12.876 25.7099 13.1328C24.4624 13.5731 23.6185 14.3069 23.1783 15.3342C22.7747 16.3615 22.5729 17.4806 22.5729 18.6914V42.9071H59.2817V19.2417C59.2817 18.0676 59.0432 17.0036 58.5662 16.0497C58.0892 15.059 57.2637 14.2885 56.0896 13.7382C55.0989 13.2612 53.8882 12.8393 52.4572 12.4724C51.063 12.1055 49.8522 11.8853 48.8249 11.8119V7.9044H81.2409V11.8119C80.2135 11.8486 78.9477 12.0137 77.4434 12.3072C75.9758 12.6008 74.8751 12.876 74.1413 13.1328C72.8938 13.5731 72.0499 14.3069 71.6096 15.3342C71.206 16.3615 71.0042 17.4806 71.0042 18.6914V74.9929C71.0042 76.277 71.206 77.3594 71.6096 78.24C72.0499 79.1205 72.8938 79.891 74.1413 80.5515C74.765 80.8817 75.8657 81.2119 77.4434 81.5421C79.0578 81.8723 80.3236 82.0558 81.2409 82.0925V86ZM142.275 85.0094C140.551 85.6331 139.028 86.1284 137.707 86.4953C136.423 86.8989 134.956 87.1007 133.305 87.1007C130.443 87.1007 128.15 86.4403 126.425 85.1194C124.737 83.7619 123.655 81.7989 123.178 79.2306H122.848C120.463 81.8723 117.895 83.8903 115.143 85.2845C112.428 86.6788 109.144 87.3759 105.291 87.3759C101.219 87.3759 97.8617 86.1284 95.2199 83.6335C92.6149 81.1385 91.3124 77.8731 91.3124 73.8371C91.3124 71.7458 91.6059 69.8746 92.193 68.2235C92.78 66.5724 93.6606 65.0864 94.8347 63.7656C95.7519 62.6649 96.9627 61.6926 98.467 60.8487C99.9714 59.9681 101.384 59.271 102.705 58.7573C104.356 58.1336 107.695 56.9779 112.721 55.2901C117.785 53.6023 121.197 52.2815 122.958 51.3275V45.879C122.958 45.402 122.848 44.4848 122.628 43.1272C122.444 41.7697 122.022 40.4855 121.362 39.2747C120.628 37.9172 119.582 36.7431 118.225 35.7524C116.904 34.7251 115.014 34.2114 112.556 34.2114C110.868 34.2114 109.291 34.505 107.823 35.092C106.392 35.6424 105.383 36.2294 104.796 36.8532C104.796 37.587 104.961 38.6693 105.291 40.1003C105.658 41.5312 105.842 42.852 105.842 44.0628C105.842 45.347 105.255 46.5211 104.081 47.5851C102.943 48.6491 101.347 49.1811 99.2926 49.1811C97.4581 49.1811 96.1005 48.5391 95.2199 47.2549C94.3761 45.934 93.9541 44.4664 93.9541 42.852C93.9541 41.1643 94.5412 39.5499 95.7153 38.0089C96.926 36.4679 98.4854 35.092 100.393 33.8812C102.044 32.8539 104.044 31.9917 106.392 31.2946C108.74 30.5607 111.034 30.1938 113.272 30.1938C116.354 30.1938 119.032 30.414 121.307 30.8543C123.618 31.2579 125.71 32.1568 127.581 33.551C129.452 34.9086 130.865 36.7614 131.819 39.1096C132.809 41.4211 133.305 44.4114 133.305 48.0804C133.305 53.3272 133.25 57.9868 133.14 62.0595C133.029 66.0954 132.974 70.5166 132.974 75.3231C132.974 76.754 133.213 77.8914 133.69 78.7353C134.204 79.5792 134.974 80.2946 136.001 80.8817C136.552 81.2119 137.414 81.3953 138.588 81.432C139.799 81.4687 141.028 81.4871 142.275 81.4871V85.0094ZM123.068 55.9505C119.949 56.8678 117.216 57.7667 114.868 58.6473C112.519 59.5278 110.336 60.6286 108.318 61.9494C106.484 63.1969 105.035 64.6829 103.971 66.4073C102.907 68.0951 102.375 70.113 102.375 72.4612C102.375 75.5065 103.163 77.7447 104.741 79.1756C106.355 80.6065 108.392 81.322 110.85 81.322C113.455 81.322 115.748 80.6982 117.73 79.4508C119.711 78.1666 121.38 76.6623 122.738 74.9378L123.068 55.9505ZM189.221 38.7244C189.221 40.5956 188.762 42.265 187.845 43.7326C186.928 45.1635 185.515 45.879 183.607 45.879C181.553 45.879 179.975 45.347 178.874 44.283C177.81 43.2189 177.278 42.0449 177.278 40.7607C177.278 39.9535 177.333 39.2197 177.443 38.5593C177.59 37.8988 177.718 37.2384 177.828 36.578C176.104 36.578 174.086 37.2751 171.775 38.6693C169.463 40.0636 167.5 42.0449 165.886 44.6132V76.2037C165.886 77.4878 166.124 78.5335 166.601 79.3407C167.115 80.1479 167.904 80.7533 168.968 81.1569C169.885 81.5238 171.059 81.7989 172.49 81.9824C173.958 82.1658 175.223 82.2943 176.287 82.3676V86H147.669V82.3676C148.513 82.2943 149.375 82.2209 150.256 82.1475C151.173 82.0741 151.962 81.9274 152.622 81.7072C153.649 81.377 154.402 80.8083 154.879 80.0011C155.392 79.1572 155.649 78.0749 155.649 76.754V43.2373C155.649 42.0999 155.374 40.9808 154.824 39.8801C154.31 38.7794 153.576 37.8988 152.622 37.2384C151.925 36.7981 151.099 36.4862 150.146 36.3028C149.192 36.0827 148.164 35.9359 147.064 35.8625V32.2852L165.115 31.0744L165.886 31.8449V39.4949H166.161C168.436 36.5229 170.967 34.2665 173.756 32.7255C176.544 31.1845 179.094 30.414 181.406 30.414C183.717 30.414 185.588 31.1661 187.019 32.6704C188.487 34.1748 189.221 36.1927 189.221 38.7244ZM248.99 58.8124C248.99 66.9577 246.421 73.8004 241.285 79.3407C236.148 84.8809 230.186 87.6511 223.398 87.6511C220.426 87.6511 217.491 87.1924 214.592 86.2752C211.73 85.3579 209.034 84.1288 206.502 82.5878L202.429 88.9169L199.017 88.1464C199.201 85.4313 199.329 82.1658 199.402 78.35C199.476 74.5342 199.513 70.8468 199.513 67.2879V13.5731C199.513 12.3256 199.219 11.0781 198.632 9.83064C198.082 8.58317 197.366 7.68425 196.486 7.1339C195.788 6.65692 194.614 6.30836 192.963 6.08822C191.349 5.83139 190.046 5.66628 189.056 5.5929V2.07062L208.979 0.804795L209.749 1.63033V37.4035L210.134 37.5136C212.409 35.092 214.886 33.2758 217.564 32.0651C220.279 30.8543 222.939 30.2489 225.544 30.2489C232.222 30.2489 237.799 32.8906 242.275 38.174C246.751 43.4574 248.99 50.3369 248.99 58.8124ZM237.487 59.1976C237.487 56.4825 237.194 53.7124 236.607 50.8872C236.02 48.0621 235.102 45.6038 233.855 43.5125C232.607 41.3844 230.975 39.66 228.957 38.3391C226.939 37.0183 224.517 36.3578 221.692 36.3578C219.124 36.3578 216.867 36.8715 214.923 37.8988C213.015 38.8895 211.29 40.247 209.749 41.9715V73.5619C209.969 74.4425 210.391 75.4698 211.015 76.6439C211.675 77.818 212.556 78.9371 213.657 80.0011C214.757 81.0284 216.005 81.8723 217.399 82.5328C218.793 83.1565 220.499 83.4684 222.517 83.4684C226.994 83.4684 230.608 81.3036 233.359 76.9742C236.111 72.6447 237.487 66.7192 237.487 59.1976ZM309.969 58.3171C309.969 62.1329 309.364 65.8936 308.153 69.5994C306.942 73.2684 305.218 76.3871 302.98 78.9554C300.448 81.8907 297.513 84.0738 294.174 85.5047C290.835 86.9356 287.093 87.6511 282.947 87.6511C279.498 87.6511 276.214 87.009 273.095 85.7248C269.977 84.404 267.206 82.4961 264.785 80.0011C262.4 77.5429 260.492 74.5526 259.061 71.0303C257.667 67.4713 256.97 63.4904 256.97 59.0876C256.97 50.6121 259.428 43.6776 264.345 38.2841C269.298 32.8906 275.774 30.1938 283.772 30.1938C291.367 30.1938 297.623 32.7622 302.539 37.8988C307.492 42.9988 309.969 49.8049 309.969 58.3171ZM298.577 58.4271C298.577 55.6754 298.302 52.7768 297.751 49.7315C297.201 46.6495 296.375 44.0445 295.275 41.9164C294.1 39.6416 292.559 37.8255 290.652 36.4679C288.744 35.0737 286.414 34.3765 283.662 34.3765C280.837 34.3765 278.415 35.0737 276.397 36.4679C274.416 37.8621 272.802 39.77 271.554 42.1916C270.38 44.4297 269.555 46.9797 269.078 49.8416C268.601 52.7034 268.362 55.4736 268.362 58.152C268.362 61.6742 268.637 64.9397 269.188 67.9483C269.775 70.9202 270.692 73.5803 271.939 75.9285C273.187 78.2767 274.746 80.1295 276.617 81.4871C278.525 82.8079 280.874 83.4684 283.662 83.4684C288.248 83.4684 291.881 81.2486 294.559 76.809C297.238 72.3695 298.577 66.2422 298.577 58.4271ZM376.012 85.0094L358.345 86.2201L357.52 85.4496V78.5702H357.19C356.309 79.4874 355.318 80.4781 354.218 81.5421C353.117 82.5694 351.851 83.505 350.42 84.3489C348.769 85.3396 347.173 86.0917 345.632 86.6054C344.091 87.1191 341.908 87.3759 339.083 87.3759C334.277 87.3759 330.607 85.8165 328.076 82.6979C325.581 79.5425 324.333 74.9745 324.333 68.994V43.0171C324.333 41.6963 324.077 40.5956 323.563 39.715C323.086 38.7977 322.37 38.0089 321.417 37.3485C320.756 36.9082 319.931 36.5963 318.94 36.4129C317.949 36.1927 316.904 36.046 315.803 35.9726V32.3953L333.91 31.0744L334.735 31.8449V69.5443C334.735 73.4702 335.616 76.4238 337.377 78.4051C339.138 80.3864 341.248 81.377 343.706 81.377C345.724 81.377 347.522 81.0651 349.099 80.4414C350.677 79.8177 351.998 79.0839 353.062 78.24C354.053 77.4695 354.915 76.6623 355.649 75.8184C356.419 74.9378 357.006 74.1306 357.41 73.3968V42.6319C357.41 41.4211 357.153 40.3571 356.639 39.4398C356.126 38.4859 355.41 37.6787 354.493 37.0183C353.833 36.578 352.842 36.3211 351.521 36.2478C350.237 36.1377 348.788 36.046 347.173 35.9726V32.3953L366.876 31.0744L367.701 31.8449V74.9378C367.701 76.1853 367.958 77.2493 368.472 78.1299C368.986 79.0105 369.701 79.7626 370.618 80.3864C371.279 80.79 372.068 81.0651 372.985 81.2119C373.902 81.322 374.911 81.3953 376.012 81.432V85.0094ZM424.223 38.7244C424.223 40.5956 423.764 42.265 422.847 43.7326C421.93 45.1635 420.517 45.879 418.609 45.879C416.555 45.879 414.977 45.347 413.876 44.283C412.812 43.2189 412.28 42.0449 412.28 40.7607C412.28 39.9535 412.335 39.2197 412.445 38.5593C412.592 37.8988 412.721 37.2384 412.831 36.578C411.106 36.578 409.088 37.2751 406.777 38.6693C404.465 40.0636 402.502 42.0449 400.888 44.6132V76.2037C400.888 77.4878 401.126 78.5335 401.603 79.3407C402.117 80.1479 402.906 80.7533 403.97 81.1569C404.887 81.5238 406.061 81.7989 407.492 81.9824C408.96 82.1658 410.226 82.2943 411.29 82.3676V86H382.671V82.3676C383.515 82.2943 384.377 82.2209 385.258 82.1475C386.175 82.0741 386.964 81.9274 387.624 81.7072C388.652 81.377 389.404 80.8083 389.881 80.0011C390.395 79.1572 390.651 78.0749 390.651 76.754V43.2373C390.651 42.0999 390.376 40.9808 389.826 39.8801C389.312 38.7794 388.578 37.8988 387.624 37.2384C386.927 36.7981 386.102 36.4862 385.148 36.3028C384.194 36.0827 383.167 35.9359 382.066 35.8625V32.2852L400.117 31.0744L400.888 31.8449V39.4949H401.163C403.438 36.5229 405.97 34.2665 408.758 32.7255C411.547 31.1845 414.097 30.414 416.408 30.414C418.72 30.414 420.591 31.1661 422.022 32.6704C423.489 34.1748 424.223 36.1927 424.223 38.7244ZM520.205 62.775L518.554 86H457.52V82.0925C458.4 82.0191 459.666 81.8907 461.317 81.7072C463.005 81.5238 464.179 81.2853 464.839 80.9918C465.94 80.5148 466.729 79.8177 467.206 78.9004C467.72 77.9831 467.976 76.809 467.976 75.3781V19.4619C467.976 18.2144 467.756 17.1137 467.316 16.1597C466.912 15.2058 466.087 14.4353 464.839 13.8482C463.996 13.408 462.803 12.986 461.262 12.5824C459.758 12.1421 458.51 11.8853 457.52 11.8119V7.9044H490.486V11.8119C489.459 11.8486 488.12 12.0321 486.468 12.3623C484.854 12.6925 483.68 12.986 482.946 13.2429C481.699 13.6831 480.836 14.4353 480.359 15.4993C479.919 16.5633 479.699 17.7007 479.699 18.9115V71.3605C479.699 73.7821 479.809 75.6716 480.029 77.0292C480.286 78.35 480.855 79.3774 481.735 80.1112C482.579 80.7716 483.827 81.2119 485.478 81.432C487.166 81.6155 489.514 81.7072 492.522 81.7072C493.88 81.7072 495.292 81.6705 496.76 81.5971C498.228 81.5238 499.622 81.377 500.943 81.1569C502.227 80.9367 503.401 80.6432 504.465 80.2763C505.566 79.8727 506.373 79.3774 506.887 78.7903C508.391 77.1026 510.134 74.5526 512.115 71.1404C514.133 67.6915 515.527 64.903 516.298 62.775H520.205ZM550.475 86H524.223V82.3676C525.067 82.2943 525.929 82.2209 526.81 82.1475C527.727 82.0741 528.516 81.9274 529.176 81.7072C530.203 81.377 530.956 80.8083 531.433 80.0011C531.946 79.1572 532.203 78.0749 532.203 76.754V43.2373C532.203 42.0632 531.928 40.9992 531.378 40.0452C530.864 39.0546 530.13 38.229 529.176 37.5686C528.479 37.1283 527.47 36.7614 526.149 36.4679C524.828 36.1377 523.618 35.9359 522.517 35.8625V32.2852L541.669 31.0744L542.44 31.8449V76.0936C542.44 77.3777 542.678 78.4418 543.155 79.2856C543.669 80.1295 544.458 80.7533 545.522 81.1569C546.329 81.4871 547.118 81.7623 547.888 81.9824C548.659 82.1658 549.521 82.2943 550.475 82.3676V86ZM543.54 9.66554C543.54 11.7569 542.843 13.5914 541.449 15.1691C540.092 16.7101 538.404 17.4806 536.386 17.4806C534.515 17.4806 532.882 16.7468 531.488 15.2792C530.13 13.7749 529.451 12.0688 529.451 10.1609C529.451 8.14288 530.13 6.38174 531.488 4.87743C532.882 3.37313 534.515 2.62097 536.386 2.62097C538.477 2.62097 540.183 3.33644 541.504 4.76736C542.862 6.1616 543.54 7.79432 543.54 9.66554ZM603.639 80.3864C605.107 81.7806 606.263 83.3583 607.107 85.1194C607.951 86.8806 608.372 89.0637 608.372 91.6687C608.372 94.2737 607.804 96.7136 606.666 98.9884C605.529 101.3 603.805 103.3 601.493 104.987C599.035 106.712 596.1 108.051 592.687 109.005C589.275 109.959 585.056 110.436 580.029 110.436C571.81 110.436 565.665 109.225 561.592 106.803C557.52 104.419 555.483 100.915 555.483 96.2917C555.483 92.5492 556.951 89.5957 559.886 87.4309C562.821 85.2662 566.564 84.0921 571.113 83.9086V83.1381C570.013 82.8079 568.875 82.4043 567.701 81.9274C566.527 81.4137 565.518 80.8266 564.674 80.1662C563.72 79.3957 562.95 78.4968 562.363 77.4695C561.776 76.4054 561.482 75.1029 561.482 73.5619C561.482 71.6173 562.161 69.8379 563.518 68.2235C564.913 66.5724 567.004 65.1598 569.792 63.9857V63.1602C566.27 61.5091 563.537 59.3994 561.592 56.8311C559.648 54.2261 558.675 51.2175 558.675 47.8053C558.675 42.6686 560.583 38.4492 564.399 35.147C568.251 31.8449 573.168 30.1938 579.149 30.1938C580.8 30.1938 582.432 30.3589 584.047 30.6892C585.698 31.0194 587.367 31.4413 589.055 31.955H607.987V37.2384H595.219V37.5686C596.576 39.1463 597.585 40.8891 598.246 42.797C598.906 44.7049 599.237 46.5761 599.237 48.4106C599.237 53.1804 597.292 57.2163 593.403 60.5185C589.55 63.8206 585.056 65.4717 579.919 65.4717H573.26C572.416 65.7652 571.535 66.2972 570.618 67.0677C569.701 67.8382 569.242 68.8839 569.242 70.2048C569.242 71.5623 569.627 72.608 570.398 73.3418C571.168 74.0389 572.104 74.5159 573.205 74.7727C574.269 75.0662 575.498 75.2497 576.892 75.3231C578.323 75.3965 579.791 75.4515 581.295 75.4882C582.909 75.5249 585.111 75.635 587.899 75.8184C590.724 76.0019 592.724 76.1119 593.898 76.1486C595.586 76.222 597.274 76.6256 598.961 77.3594C600.686 78.0932 602.245 79.1022 603.639 80.3864ZM588.78 48.1905C588.78 43.8977 587.899 40.4855 586.138 37.9539C584.414 35.3855 581.974 34.1014 578.818 34.1014C577.094 34.1014 575.608 34.4683 574.36 35.2021C573.15 35.8992 572.159 36.9082 571.388 38.229C570.655 39.4398 570.123 40.9074 569.792 42.6319C569.499 44.3197 569.352 46.0625 569.352 47.8603C569.352 51.9329 570.233 55.2534 571.994 57.8217C573.792 60.3901 576.103 61.6742 578.928 61.6742C582.084 61.6742 584.505 60.4084 586.193 57.8768C587.918 55.3084 588.78 52.0797 588.78 48.1905ZM599.347 93.705C599.347 91.6503 598.87 89.9626 597.916 88.6417C596.962 87.3209 595.512 86.4219 593.568 85.945C592.541 85.7982 590.431 85.6331 587.239 85.4496C584.047 85.2662 580.341 85.1745 576.122 85.1745C572.159 85.945 569.334 87.2291 567.646 89.027C565.995 90.8615 565.169 93.2097 565.169 96.0715C565.169 97.3557 565.445 98.5848 565.995 99.7589C566.545 100.933 567.499 102.015 568.857 103.006C570.141 103.96 571.865 104.73 574.03 105.318C576.195 105.941 578.837 106.253 581.955 106.253C587.349 106.253 591.587 105.207 594.669 103.116C597.787 101.061 599.347 97.9244 599.347 93.705ZM673.535 86H646.897V82.3676C647.741 82.2943 648.677 82.2209 649.704 82.1475C650.732 82.0741 651.575 81.9274 652.236 81.7072C653.263 81.377 654.015 80.8083 654.492 80.0011C655.006 79.1572 655.263 78.0749 655.263 76.754V48.8509C655.263 44.9984 654.346 42.0265 652.511 39.9352C650.713 37.8438 648.512 36.7981 645.907 36.7981C643.999 36.7981 642.219 37.11 640.568 37.7337C638.954 38.3208 637.505 39.0546 636.22 39.9352C634.973 40.8524 634.019 41.7697 633.359 42.6869C632.698 43.6042 632.185 44.3747 631.818 44.9984V76.2037C631.818 77.4511 632.056 78.4785 632.533 79.2856C633.047 80.0928 633.817 80.7166 634.845 81.1569C635.652 81.5238 636.477 81.7989 637.321 81.9824C638.202 82.1658 639.156 82.2943 640.183 82.3676V86H613.546V82.3676C614.39 82.2943 615.27 82.2209 616.188 82.1475C617.105 82.0374 617.875 81.8907 618.499 81.7072C619.526 81.377 620.297 80.8083 620.811 80.0011C621.324 79.1572 621.581 78.0749 621.581 76.754V13.5731C621.581 12.3256 621.287 11.0781 620.7 9.83064C620.15 8.58317 619.416 7.64756 618.499 7.02383C617.839 6.54685 616.664 6.21664 614.977 6.03318C613.326 5.81304 611.986 5.66628 610.959 5.5929V2.07062L631.047 0.804795L631.818 1.63033V39.4949H632.038C633.249 38.2841 634.349 37.2201 635.34 36.3028C636.331 35.3488 637.633 34.3582 639.247 33.3309C640.642 32.4503 642.274 31.7165 644.146 31.1294C646.054 30.5424 648.182 30.2489 650.53 30.2489C655.373 30.2489 659.097 31.7899 661.702 34.8719C664.307 37.9172 665.61 42.32 665.61 48.0804V76.3137C665.61 77.5979 665.83 78.6436 666.27 79.4508C666.747 80.2213 667.517 80.8266 668.581 81.2669C669.425 81.5971 670.177 81.854 670.838 82.0374C671.535 82.1842 672.434 82.2943 673.535 82.3676V86ZM713.711 83.6335C711.326 84.6241 709.069 85.4496 706.941 86.1101C704.813 86.8072 702.208 87.1557 699.126 87.1557C694.577 87.1557 691.366 86.0183 689.495 83.7435C687.661 81.432 686.743 78.1849 686.743 74.0022V37.2384H676.947V31.955H686.963V15.059H696.98V31.955H712.555V37.2384H697.09V67.5631C697.09 69.8379 697.163 71.7458 697.31 73.2868C697.494 74.7911 697.897 76.1119 698.521 77.2493C699.108 78.3134 699.989 79.1205 701.163 79.6709C702.337 80.2213 703.914 80.4964 705.896 80.4964C706.813 80.4964 708.152 80.4231 709.913 80.2763C711.711 80.0928 712.977 79.8727 713.711 79.6159V83.6335ZM754.987 59.4178C756.492 60.7386 757.647 62.2613 758.455 63.9857C759.262 65.7102 759.665 67.8199 759.665 70.3148C759.665 75.3414 757.776 79.4508 753.997 82.6428C750.254 85.8349 745.393 87.4309 739.412 87.4309C736.257 87.4309 733.34 86.8622 730.662 85.7248C728.02 84.5874 726.13 83.5417 724.993 82.5878L723.892 86.1651H719.765L719.214 67.2879H723.012C723.305 68.7188 723.929 70.3882 724.883 72.2961C725.837 74.204 726.993 75.9285 728.35 77.4695C729.781 79.0839 731.487 80.4414 733.468 81.5421C735.486 82.6428 737.743 83.1932 740.238 83.1932C743.76 83.1932 746.475 82.4043 748.383 80.8266C750.291 79.2123 751.245 76.9191 751.245 73.9472C751.245 72.4062 750.933 71.0853 750.309 69.9846C749.722 68.8472 748.842 67.8566 747.668 67.0127C746.457 66.1688 744.971 65.4167 743.21 64.7562C741.449 64.0591 739.486 63.3803 737.321 62.7199C735.597 62.2062 733.67 61.5091 731.542 60.6286C729.451 59.7113 727.653 58.6473 726.149 57.4365C724.534 56.1523 723.214 54.5746 722.186 52.7034C721.159 50.8322 720.645 48.6308 720.645 46.0991C720.645 41.6596 722.296 37.8988 725.598 34.8168C728.901 31.7348 733.322 30.1938 738.862 30.1938C740.99 30.1938 743.155 30.469 745.356 31.0194C747.594 31.5697 749.41 32.2302 750.805 33.0007L752.071 30.1388H756.033L756.859 47.5851H753.061C752.291 43.6959 750.621 40.5405 748.053 38.119C745.521 35.6607 742.421 34.4316 738.752 34.4316C735.743 34.4316 733.377 35.1837 731.652 36.688C729.928 38.1924 729.066 40.0085 729.066 42.1366C729.066 43.7876 729.341 45.1635 729.891 46.2643C730.478 47.365 731.34 48.3006 732.478 49.0711C733.579 49.8049 734.954 50.502 736.606 51.1624C738.293 51.7862 740.366 52.5016 742.825 53.3088C745.246 54.0793 747.521 54.9782 749.649 56.0056C751.814 57.0329 753.593 58.1703 754.987 59.4178Z" fill="white"/>
</svg>
