<svg width="345" height="42" viewBox="0 0 345 42" fill="none" xmlns="http://www.w3.org/2000/svg">
<path d="M58.7303 32.1586C62.1946 28.9572 64.9423 25.0585 66.7928 20.7189C69.5444 14.1678 69.3126 9.072 66.0975 5.43142C62.8824 1.79085 56.8022 -0.0195726 47.8571 0.000159559H17.6487L14.9119 6.57096H35.7264C46.3481 6.57096 49.4252 11.8394 45.7564 20.5709C43.6409 25.6174 41.7769 30.2643 37.3537 32.3214C33.315 34.2305 29.1433 34.778 21.7169 34.778H12.0863L19.2612 17.7591H10.1927L0 41.9556H27.368C33.5033 42.1838 39.6389 41.5106 45.5789 39.9577C50.4806 38.3891 54.9727 35.7505 58.7303 32.2326V32.1586ZM255.632 0.000159559H244.419L201.31 40.2093L218.16 0.000159559H199.683L177.36 17.4335L165.909 26.8753H165.392L170.791 13.1713L164.164 0.000159559H145.598L128.719 40.2685L118.999 0.000159559H98.6581L53.7301 41.9556H64.9584L76.4382 30.9895H104.753L107.002 41.9556H137.077L147.95 16.0276C148.556 14.5769 149.085 13.0948 149.533 11.5879C149.627 13.079 149.998 14.5396 150.628 15.8944L160.184 37.5306H161.812L189.165 15.9832C190.793 14.5894 192.344 13.1073 193.81 11.5435C192.755 13.5167 192.015 14.9966 191.591 15.9832L180.703 42H221.489L232.85 30.9747H262.245L264.612 42H274.967L264.878 0.000159559H255.632ZM82.3704 25.2622L100.285 8.18406L103.525 25.2622H82.3704ZM238.812 25.2622L257.2 7.39971L261.017 25.1586L238.812 25.2622ZM344.719 0.473741L344.867 0.103764H314.658C306.716 -0.135104 298.853 1.74455 291.876 5.54982C285.8 8.95557 281.036 14.2946 278.34 20.7189C276.673 24.2653 276.156 28.2444 276.861 32.0994C277.263 33.8344 278.082 35.445 279.247 36.7913C280.412 38.1376 281.889 39.1788 283.548 39.8245C286.817 41.2304 292.305 41.9408 299.968 41.9408H327.277L329.999 35.2812H314.629C307.232 35.2812 302.276 34.3341 299.835 32.425C297.128 30.3679 297.424 25.6026 299.539 20.5857C303.193 11.8542 310.871 6.40817 321.478 6.40817H333.402L330.665 12.9642H339.734L345 0.384928L344.719 0.473741Z" fill="white"/>
</svg>
