<svg width="446" height="55" viewBox="0 0 446 55" fill="none" xmlns="http://www.w3.org/2000/svg">
<path d="M75.9238 41.5575C80.4023 37.4205 83.9544 32.3823 86.3466 26.7744C89.9038 18.3086 89.6041 11.7235 85.4478 7.01886C81.2914 2.31425 73.4313 -0.025293 61.8674 0.000206193H22.8154L19.2774 8.49144H46.1854C59.9167 8.49144 63.8946 15.2997 59.1517 26.5831C56.417 33.1045 54.0073 39.1096 48.2891 41.7679C43.0681 44.2349 37.675 44.9425 28.0746 44.9425H15.6246L24.8999 22.9495H13.1767L0 54.2179H35.3801C43.3115 54.5127 51.2433 53.6428 58.9223 51.6361C65.259 49.609 71.0661 46.1992 75.9238 41.6531V41.5575ZM330.47 0.000206193H315.973L260.245 51.9612L282.027 0.000206193H258.141L229.282 22.5287L214.48 34.7301H213.811L220.791 17.0209L212.223 0.000206193H188.222L166.401 52.0377L153.837 0.000206193H127.541L69.4598 54.2179H83.9752L98.8157 40.0467H135.42L138.327 54.2179H177.207L191.263 20.7119C192.047 18.8372 192.73 16.922 193.309 14.9746C193.431 16.9016 193.911 18.789 194.725 20.5398L207.079 48.4996H209.183L244.544 20.6546C246.649 18.8534 248.653 16.9381 250.549 14.9172C249.184 17.4672 248.228 19.3796 247.68 20.6546L233.604 54.2752H286.33L301.018 40.0276H339.018L342.078 54.2752H355.465L342.422 0.000206193H330.47ZM106.485 32.6456L129.644 10.576L133.832 32.6456H106.485ZM308.725 32.6456L332.497 9.5624L337.431 32.5117L308.725 32.6456ZM445.637 0.612201L445.828 0.134091H406.776C396.508 -0.17459 386.343 2.25442 377.324 7.17185C369.47 11.573 363.311 18.4724 359.825 26.7744C357.67 31.3573 357.002 36.4993 357.913 41.481C358.432 43.7231 359.491 45.8044 360.998 47.5442C362.504 49.284 364.412 50.6295 366.557 51.464C370.784 53.2808 377.879 54.1987 387.785 54.1987H423.089L426.608 45.5928H406.738C397.175 45.5928 390.769 44.3688 387.613 41.9018C384.113 39.2435 384.496 33.0854 387.231 26.6022C391.954 15.3189 401.88 8.28107 415.592 8.28107H431.006L427.468 16.7532H439.192L446 0.49743L445.637 0.612201Z" fill="white"/>
</svg>
