<svg width="141" height="17" viewBox="0 0 141 17" fill="none" xmlns="http://www.w3.org/2000/svg">
<path d="M24.0028 13.0166C25.4187 11.7208 26.5416 10.1427 27.2979 8.38622C28.4225 5.7346 28.3278 3.672 27.0138 2.19843C25.6998 0.724867 23.2148 -0.00792223 19.559 6.45835e-05H7.21294L6.09441 2.65967H14.6012C18.9423 2.65967 20.1999 4.79215 18.7004 8.32631C17.8359 10.3689 17.0741 12.2498 15.2663 13.0825C13.6157 13.8552 11.9107 14.0768 8.8756 14.0768H4.93962L7.87195 7.1882H4.16572L0 16.982H11.1852C13.6927 17.0744 16.2002 16.8019 18.6279 16.1734C20.6312 15.5385 22.4671 14.4704 24.0028 13.0465V13.0166ZM104.476 6.45835e-05H99.8929L82.2747 16.2752L89.1611 6.45835e-05H81.6096L72.4861 7.05641L67.8065 10.8781H67.5949L69.8017 5.33126L67.0931 6.45835e-05H59.5052L52.6067 16.2991L48.6345 6.45835e-05H40.3211L21.9593 16.982H26.5482L31.2399 12.5434H42.8121L43.7311 16.982H56.0227L60.4666 6.48735C60.7143 5.90016 60.9302 5.30029 61.1135 4.69032C61.1518 5.29389 61.3036 5.88506 61.5609 6.43345L65.4667 15.191H66.1317L77.3109 6.46939C77.9764 5.90523 78.6102 5.30532 79.2093 4.67235C78.778 5.47103 78.4757 6.07004 78.3024 6.46939L73.8525 17H90.5215L95.1649 12.5374H107.178L108.146 17H112.378L108.255 6.45835e-05H104.476ZM33.6644 10.2252L40.9862 3.31259L42.3103 10.2252H33.6644ZM97.6014 10.2252L105.117 2.99512L106.677 10.1833L97.6014 10.2252ZM140.885 0.191752L140.946 0.0419997H128.6C125.353 -0.0546849 122.14 0.706126 119.289 2.24636C116.805 3.62487 114.858 5.78591 113.756 8.38622C113.075 9.82168 112.864 11.4323 113.152 12.9926C113.316 13.6949 113.651 14.3468 114.127 14.8917C114.603 15.4366 115.207 15.8581 115.885 16.1195C117.221 16.6885 119.464 16.976 122.596 16.976H133.757L134.869 14.2805H128.587C125.564 14.2805 123.539 13.8971 122.541 13.1244C121.435 12.2918 121.556 10.363 122.42 8.33231C123.914 4.79814 127.052 2.59378 131.387 2.59378H136.26L135.141 5.2474H138.848L141 0.155804L140.885 0.191752Z" fill="white"/>
</svg>
