<svg width="336" height="41" viewBox="0 0 336 41" fill="none" xmlns="http://www.w3.org/2000/svg">
<g opacity="0.5">
<path d="M57.1612 31.2877C60.5329 28.173 63.2073 24.3799 65.0083 20.1578C67.6864 13.7841 67.4608 8.82631 64.3316 5.28433C61.2023 1.74235 55.2847 -0.0190425 46.5785 0.000155238H17.1772L14.5135 6.393H34.7719C45.1098 6.393 48.1047 11.5188 44.5339 20.0138C42.475 24.9236 40.6608 29.4447 36.3557 31.446C32.425 33.3034 28.3646 33.8362 21.1367 33.8362H11.7634L18.7466 17.2781H9.9204L0 40.8193H26.6368C32.6082 41.0413 38.5798 40.3864 44.3611 38.8756C49.1319 37.3494 53.504 34.7823 57.1612 31.3596V31.2877ZM248.803 0.000155238H237.889L195.932 39.1203L212.332 0.000155238H194.348L172.621 16.9613L161.477 26.1475H160.973L166.228 12.8146L159.778 0.000155238H141.708L125.28 39.1779L115.82 0.000155238H96.0222L52.2946 40.8193H63.2229L74.396 30.1502H101.954L104.143 40.8193H133.415L143.997 15.5935C144.587 14.1821 145.102 12.7402 145.538 11.274C145.629 12.7248 145.991 14.1458 146.603 15.4639L155.905 36.5142H157.489L184.111 15.5503C185.696 14.1943 187.205 12.7523 188.632 11.2308C187.605 13.1506 186.885 14.5904 186.472 15.5503L175.875 40.8625H215.571L226.629 30.1358H255.239L257.542 40.8625H267.621L257.801 0.000155238H248.803ZM80.1697 24.5781L97.606 7.96241L100.759 24.5781H80.1697ZM232.432 24.5781L250.329 7.1993L254.044 24.4773L232.432 24.5781ZM335.509 0.460911L335.653 0.100954H306.252C298.521 -0.131445 290.868 1.6973 284.078 5.39952C278.165 8.71303 273.528 13.9075 270.904 20.1578C269.281 23.6082 268.778 27.4795 269.464 31.2301C269.855 32.918 270.652 34.485 271.786 35.7949C272.921 37.1047 274.357 38.1177 275.972 38.746C279.154 40.1138 284.496 40.8049 291.954 40.8049H318.533L321.183 34.3257H306.223C299.024 34.3257 294.2 33.4042 291.825 31.5468C289.19 29.5455 289.478 24.9092 291.537 20.0282C295.093 11.5332 302.566 6.23462 312.889 6.23462H324.494L321.831 12.6131H330.657L335.783 0.374503L335.509 0.460911Z" fill="white"/>
</g>
</svg>
